<?xml version="1.0" encoding="utf-8"?>
<!-- Generator: Adobe Illustrator 25.4.1, SVG Export Plug-In . SVG Version: 6.00 Build 0)  -->
<svg version="1.0" id="katman_1" xmlns="http://www.w3.org/2000/svg" xmlns:xlink="http://www.w3.org/1999/xlink" x="0px" y="0px"
	 viewBox="0 0 1700 1200" style="enable-background:new 0 0 1700 1200;" xml:space="preserve">
<style type="text/css">
	.st0{fill:#FFCF33;}
	.st1{fill:#FFD755;}
	.st2{fill:#4FA58C;}
	.st3{fill:#6CB49F;}
	.st4{fill:#1D1D1B;}
	.st5{fill-rule:evenodd;clip-rule:evenodd;fill:#1D1D1B;}
</style>
<g>
	<path class="st0" d="M277,554.4c0-68.5,56.7-124,126.7-124h32.9v216.3c0,68.5-56.7,124-126.7,124H277V554.4z"/>
	<path class="st0" d="M89,536.5c0,68.5,56.7,124,126.7,124h32.9V554.4c0-68.5-56.7-124-126.7-124H89V536.5z"/>
	<path class="st1" d="M248.6,659.6L90,430.4h32c70,0,126.7,55.5,126.7,124V659.6z"/>
	<path class="st2" d="M685.7,614.4c70,0,126.7,55.5,126.7,124v32.2h-221c-70,0-126.7-55.5-126.7-124v-32.2H685.7z"/>
	<path class="st3" d="M766.1,770.7L658,614.4h27.8c70,0,126.7,55.5,126.7,124v32.2H766.1z"/>
	<path class="st2" d="M685.7,586.6c70,0,126.7-55.5,126.7-124v-32.2h-221c-70,0-126.7,55.5-126.7,124v32.2H685.7z"/>
	<path class="st3" d="M638.7,586.6L538.5,441.7c16.1-7.3,34.1-11.3,53-11.3h221v32.2c0,68.5-56.7,124-126.7,124H638.7z"/>
	<path class="st4" d="M1393.6,614.5v156.1h-39v-13.3c-7.6,8.9-19,13.3-34.3,13.3c-10.6,0-20.3-2.4-29.1-7.2
		c-8.8-4.9-15.7-11.9-20.9-20.9c-5-9-7.5-19.4-7.5-31.3s2.5-22.2,7.5-31.1c5.2-9,12.1-15.9,20.9-20.7c8.8-4.8,18.5-7.2,29.1-7.2
		c13.9,0,24.7,3.9,32.3,11.8V639c0-13.5,11.2-24.5,25.1-24.5H1393.6z M1328.9,738.7c7,0,12.9-2.4,17.5-7.2
		c4.6-4.9,6.9-11.7,6.9-20.3c0-8.5-2.3-15.1-6.9-19.9c-4.5-4.8-10.3-7.2-17.5-7.2c-7.2,0-13.1,2.4-17.7,7.2
		c-4.6,4.8-6.9,11.4-6.9,19.9c0,8.6,2.3,15.4,6.9,20.3C1315.8,736.4,1321.7,738.7,1328.9,738.7z"/>
	<path class="st4" d="M1220.4,668c4.2-5.3,9.7-9.3,16.4-11.8c6.8-2.7,14.6-4.1,23.4-4.1v36.8c-3.8-0.4-6.9-0.6-9.4-0.6
		c-8.9,0-15.9,2.4-21,7.1c-4.9,4.7-7.4,12-7.4,21.7v53.6h-41.5V652h39.5V668z"/>
	<path class="st5" d="M1065.6,762.9c8.4,5.2,17.9,7.7,28.5,7.7c7.7,0,14.8-1.5,21.1-4.5c4.1-1.9,7.6-4.3,10.7-7.1v11.6h39.3V652
		h-39.3v11.8c-3.1-3-6.8-5.4-10.9-7.4c-6.2-3-13.1-4.5-20.9-4.5c-10.6,0-20.1,2.6-28.5,7.7c-8.2,5.2-14.8,12.2-19.7,21.1
		c-4.7,8.9-7.1,19.1-7.1,30.5s2.4,21.6,7.1,30.5C1050.8,750.7,1057.3,757.8,1065.6,762.9z M1120.1,730.8c-4.7,5-11,7.5-18.7,7.5
		c-4.9,0-9.3-1.2-13.3-3.5c-4-2.3-7-5.5-9.3-9.6c-2.2-4.1-3.3-8.7-3.3-13.8c0-5.3,1.1-10,3.3-14.1c2.4-4.1,5.5-7.2,9.3-9.4
		c4-2.3,8.5-3.5,13.5-3.5c5.1,0,9.5,1.2,13.3,3.5c4,2.2,7,5.3,9,9.4c2.2,4.1,3.3,8.8,3.3,14.1
		C1127.2,719.2,1124.8,725.7,1120.1,730.8z"/>
	<path class="st4" d="M972.8,770.7c-16.1,0-30.5-3.3-43.4-9.9c-12.7-6.7-22.7-16-30-27.9c-7.3-11.9-11-25.3-11-40.3
		c0-15,3.7-28.5,11-40.3c7.3-11.9,17.3-21.1,30-27.7c12.9-6.7,27.3-10.1,43.4-10.1c14,0,26.7,2.4,37.9,7.3c11.2,4.9,20.6,11.9,28,21
		l-27.6,24.5c-9.9-11.7-22-17.6-36.2-17.6c-8.3,0-15.8,1.8-22.3,5.4c-6.4,3.6-11.5,8.7-15.1,15.2c-3.5,6.4-5.3,13.9-5.3,22.3
		c0,8.4,1.8,15.9,5.3,22.5c3.7,6.4,8.7,11.4,15.1,15c6.6,3.6,14,5.4,22.3,5.4c14.2,0,26.2-5.9,36.2-17.6l27.6,24.5
		c-7.4,9.2-16.8,16.2-28,21S986.8,770.7,972.8,770.7z"/>
	<path class="st5" d="M1571,586l39.9-119.6H1574l-22,67.7l-21.4-67.7h-34.9l-22,67.1l-21.3-67.1h-39.5l39.9,119.6h39.3l20.2-60.1
		l19.4,60.1H1571z"/>
	<path class="st4" d="M1348.8,586.5c-13,0-24.8-2.6-35.3-7.9c-10.5-5.3-18.7-12.6-24.7-22c-5.8-9.4-8.8-20-8.8-31.9
		c0-11.7,2.9-22.3,8.8-31.7c6-9.4,14.2-16.7,24.5-21.8c10.5-5.3,22.3-7.9,35.5-7.9c13.2,0,25,2.6,35.5,7.9
		c10.5,5.1,18.7,12.4,24.5,21.8c5.8,9.2,8.8,19.8,8.8,31.7c0,11.9-2.9,22.5-8.8,31.9c-5.8,9.4-14,16.7-24.5,22
		C1373.9,583.8,1362,586.5,1348.8,586.5z M1348.8,553.2c7.5,0,13.6-2.5,18.4-7.5c4.8-5.1,7.2-12.2,7.2-21.1c0-8.8-2.4-15.7-7.2-20.7
		c-4.8-5-10.9-7.5-18.4-7.5c-7.5,0-13.6,2.5-18.4,7.5s-7.2,11.9-7.2,20.7c0,9,2.4,16,7.2,21.1
		C1335.2,550.7,1341.3,553.2,1348.8,553.2z"/>
	<path class="st4" d="M1162.9,430.3h17.6c13.8,0,25.1,11,25.1,24.5v131.6h-42.7V430.3z"/>
	<path class="st4" d="M1225.4,430.3h17.6c13.8,0,25.1,11,25.1,24.5v131.6h-42.7V430.3z"/>
	<path class="st4" d="M1151.2,525.1c0,0.3-0.2,3.7-0.7,10.3H1062c1.8,6.2,5.2,10.9,10.3,14.3c5.2,3.2,11.8,4.8,19.5,4.8
		c5.8,0,10.9-0.8,15.1-2.4c4.3-1.6,8.7-4.3,13-7.9l22.5,22.9c-11.8,12.9-29.1,19.4-51.9,19.4c-14.2,0-26.7-2.6-37.5-7.9
		c-10.8-5.3-19.2-12.6-25.2-22c-5.8-9.4-8.8-20-8.8-31.9c0-11.7,2.8-22.2,8.5-31.5c5.8-9.4,13.9-16.7,24-22
		c10.2-5.3,21.6-7.9,34.4-7.9c12.1,0,23.2,2.5,33,7.5c9.9,4.8,17.7,12,23.4,21.4C1148.3,501.3,1151.2,512.3,1151.2,525.1z
		 M1086.3,492.9c-6.6,0-12.1,1.8-16.6,5.5c-4.3,3.7-7.1,8.7-8.3,15h49.9c-1.2-6.3-4-11.3-8.5-15
		C1098.3,494.7,1092.9,492.9,1086.3,492.9z"/>
	<path class="st4" d="M978.6,529.2v57.2h-44.5v-57.9l-60-98.2h37.4c5.9,0,11.4,3.1,14.5,8.1l32.4,53.2l32.4-53.2
		c3-5,8.5-8.1,14.5-8.1h33.6L978.6,529.2z"/>
</g>
</svg>
